# xmcd CD database file
#
# Track frame offsets:
#	150
#	7862
#	26606
#	46074
#	61230
#	82055
#	99469
#	113022
#	130760
#	150696
#	172112
#	196873
#	212374
#	244678
#	279089
#	288823
#	322937
#
# Disc length: 4542 seconds
#
# Revision: 0
# Processed by: cddbd v1.4PL0 Copyright (c) Steve Scherf et al.
# Submitted via: CDex 1.50beta9
#
DISCID=d011bc11
DTITLE=Sergent Garcia and Manu Chao - Viva El Sargento
DYEAR=2003
DGENRE=Salsa
TTITLE0=Canto Mi General
TTITLE1=Oye Mi Bomba (feat. Manu Chao)
TTITLE2=Mamaye
TTITLE3=Mojemonos
TTITLE4=Medecine Man (feat. Manu Chao)
TTITLE5=Hoy Me Voy
TTITLE6=Nueve Vidas (feat. Manu Chao)
TTITLE7=Camino De La Vida (feat. Manu Chao)
TTITLE8=Salsamania
TTITLE9=Amor Pa'mi (feat. Manu Chao)
TTITLE10=Sangre Negra
TTITLE11=El Son Del Mojitu (feat. Manu Chao)
TTITLE12=Quitate la arena
TTITLE13=Los desaparecidos (feat. Manu Chao)
TTITLE14=Asi toco la mano
TTITLE15=Seremos (feat. Manu Chao)
TTITLE16=Je Saia
EXTD=YEAR: 2003
EXTT0=
EXTT1=
EXTT2=
EXTT3=
EXTT4=
EXTT5=
EXTT6=
EXTT7=
EXTT8=
EXTT9=
EXTT10=
EXTT11=
EXTT12=
EXTT13=
EXTT14=
EXTT15=
EXTT16=
PLAYORDER=
